<?xml version="1.0" standalone="no"?>
<!DOCTYPE svg PUBLIC "-//W3C//DTD SVG 1.1//EN" "http://www.w3.org/Graphics/SVG/1.1/DTD/svg11.dtd" >
<svg xmlns="http://www.w3.org/2000/svg">
<metadata>Generated by IcoMoon</metadata>
<defs>
<font id="icomoon" horiz-adv-x="1024">
<font-face units-per-em="1024" ascent="960" descent="-64" />
<missing-glyph horiz-adv-x="1024" />
<glyph unicode="&#x20;" horiz-adv-x="512" d="" />
<glyph unicode="&#xe900;" glyph-name="Calendar" d="M373.333 917.333v-53.347c7.546 0.013 15.382 0.013 23.521 0.013h160.218c34.227 0 65.348 0 93.594-0.543v53.876c0 17.673 14.327 32 32 32s32-14.327 32-32v-56.623c11.089-0.846 21.594-1.908 31.531-3.244 50.022-6.726 90.513-20.896 122.445-52.826 31.927-31.93 46.097-72.419 52.826-122.442 6.532-48.606 6.532-110.712 6.532-189.121v-90.155c0-78.409 0-140.514-6.532-189.12-6.729-50.022-20.898-90.513-52.826-122.445-31.932-31.927-72.422-46.097-122.445-52.826-48.606-6.532-110.711-6.532-189.12-6.532h-90.155c-78.409 0-140.515 0-189.121 6.532-50.023 6.729-90.512 20.898-122.442 52.826-31.93 31.932-46.1 72.422-52.826 122.445-6.535 48.606-6.534 110.711-6.534 189.124v160.218c0 45.291 0 81.184 2.301 110.141 2.353 29.606 7.26 54.689 18.6 77.684 19.732 40.013 52.116 72.397 92.129 92.129 22.996 11.34 48.079 16.247 77.684 18.6 7.11 0.565 14.637 0.991 22.619 1.313v54.321c0 17.673 14.327 32 32 32s32-14.327 32-32zM650.667 789.333v10.108c-27.849 0.545-59.563 0.559-96 0.559h-156.445c-8.756 0-17.038-0.001-24.889-0.016v-10.651c0-17.673-14.327-32-32-32s-32 14.327-32 32v9.626c-6.211-0.274-12.041-0.621-17.55-1.059-25.766-2.047-41.754-5.94-54.448-12.201-27.377-13.501-49.535-35.659-63.036-63.036-6.26-12.694-10.153-28.681-12.201-54.448-2.076-26.125-2.1-59.476-2.1-106.438v-156.445c0-81.357 0.068-139.157 5.963-183.006 5.771-42.923 16.594-67.657 34.651-85.713s42.789-28.881 85.715-34.65c43.847-5.897 101.646-5.965 183.004-5.965h85.333c81.357 0 139.157 0.068 183.006 5.965 42.923 5.769 67.657 16.593 85.713 34.65s28.881 42.79 34.65 85.713c5.897 43.849 5.965 101.649 5.965 183.006v85.333c0 81.358-0.068 139.157-5.965 183.004-5.769 42.927-16.593 67.658-34.65 85.715s-42.79 28.88-85.713 34.651c-7.27 0.977-14.925 1.795-23.006 2.478v-7.182c0-17.673-14.327-32-32-32s-32 14.327-32 32zM298.667 650.667c-17.673 0-32-14.327-32-32s14.327-32 32-32h426.667c17.673 0 32 14.327 32 32s-14.327 32-32 32h-426.667z" />
<glyph unicode="&#xe901;" glyph-name="Heart" d="M440.778 657.921c-63.918 65.37-169.097 65.37-233.015 0-61.918-63.325-61.918-164.512 0-227.836l302.898-309.78c0.737-0.758 1.948-0.758 2.685 0l302.899 309.78c61.916 63.324 61.916 164.511 0 227.836-63.918 65.37-169.098 65.37-233.016 0l-43.771-44.765c-7.224-7.389-17.121-11.554-27.453-11.554-10.335 0-20.233 4.165-27.457 11.554l-43.77 44.765zM871.158 711.613c91.1-93.172 91.1-242.049 0-335.221l-302.899-309.78c-30.863-31.565-81.648-31.565-112.51 0l-302.898 309.78c-91.101 93.172-91.101 242.050 0 335.221 94.043 96.181 248.797 96.181 342.84 0l16.314-16.684 16.312 16.684c94.044 96.181 248.796 96.181 342.84 0z" />
<glyph unicode="&#xe902;" glyph-name="Heart-filled" d="M871.158 376.397c91.1 93.17 91.1 242.047 0 335.22-94.044 96.18-248.796 96.18-342.84-0.001l-16.312-16.684-16.314 16.684c-94.043 96.181-248.797 96.181-342.84 0.001-91.101-93.172-91.101-242.050 0-335.22l302.898-309.786c30.862-31.56 81.647-31.56 112.51 0l302.899 309.786z" />
<glyph unicode="&#xe903;" glyph-name="linkedin" horiz-adv-x="1092" d="M944.353 960h-796.442c-30.176 0-59.116-11.987-80.453-33.325s-33.325-50.277-33.325-80.453v-796.442c0-30.181 11.987-59.119 33.325-80.452 21.338-21.34 50.277-33.328 80.453-33.328h796.442c30.181 0 59.119 11.988 80.452 33.328 21.34 21.333 33.328 50.272 33.328 80.452v796.442c0 30.176-11.988 59.116-33.328 80.453-21.333 21.337-50.272 33.325-80.452 33.325zM347.022 135.113c0-7.543-2.997-14.78-8.331-20.118-5.334-5.332-12.569-8.329-20.113-8.329h-85.333c-7.544 0-14.779 2.997-20.113 8.329-5.334 5.338-8.331 12.575-8.331 20.118v398.22c0 7.544 2.997 14.779 8.331 20.113s12.569 8.331 20.113 8.331h85.333c7.543 0 14.778-2.997 20.113-8.331s8.331-12.569 8.331-20.113v-398.22zM275.911 618.667c-16.878 0-33.376 5.005-47.409 14.381s-24.97 22.704-31.429 38.297c-6.459 15.592-8.149 32.75-4.856 49.303s11.42 31.758 23.354 43.692c11.934 11.934 27.139 20.062 43.692 23.354s33.711 1.603 49.304-4.856c15.593-6.459 28.92-17.396 38.296-31.429s14.382-30.531 14.382-47.408c0-22.632-8.991-44.336-24.994-60.34s-37.708-24.994-60.34-24.994zM887.467 135.113c0-7.543-2.997-14.78-8.329-20.118-5.338-5.332-12.575-8.329-20.118-8.329h-85.333c-7.543 0-14.78 2.997-20.111 8.329-5.332 5.338-8.329 12.575-8.329 20.118v213.331c0 22.632-8.991 44.336-24.992 60.34-16.009 16.003-37.711 24.994-60.343 24.994s-44.337-8.991-60.34-24.994c-16.003-16.003-24.993-37.708-24.993-60.34v-213.331c0-7.543-2.997-14.78-8.331-20.118-5.334-5.332-12.569-8.329-20.113-8.329h-85.333c-7.544 0-14.779 2.997-20.113 8.329-5.334 5.338-8.331 12.575-8.331 20.118v398.22c0 7.544 2.997 14.779 8.331 20.113s12.569 8.331 20.113 8.331h85.333c7.544 0 14.779-2.997 20.113-8.331s8.331-12.569 8.331-20.113v-34.133c16.982 25.842 40.666 46.584 68.521 60.011s58.832 19.033 89.627 16.22c43.329-5.343 83.135-26.565 111.718-59.562s43.916-75.423 43.022-119.069v-261.687z" />
<glyph unicode="&#xe904;" glyph-name="clear, close" d="M810 664.667l-238-238 238-238-60-60-238 238-238-238-60 60 238 238-238 238 60 60 238-238 238 238z" />
<glyph unicode="&#xe905;" glyph-name="Lock" horiz-adv-x="964" d="M481.868 781.802c29.109 0 52.706-23.598 52.706-52.706v-56.659c-17.191 2.605-34.793 3.956-52.711 3.956-17.914 0-35.514-1.35-52.7-3.955v56.657c0 29.109 23.597 52.706 52.706 52.706zM293.633 729.096v-107.789c-96.619-62.035-160.632-170.43-160.632-293.777 0-192.669 156.191-348.859 348.862-348.859s348.861 156.19 348.861 348.859c0 123.343-64.006 231.735-160.617 293.771v107.795c0 103.959-84.278 188.235-188.238 188.235s-188.235-84.276-188.235-188.235zM481.882 435.451c37.425 0 67.765-30.339 67.765-67.765v-80.315c0-37.424-30.339-67.765-67.765-67.765s-67.765 30.341-67.765 67.765v80.315c0 37.425 30.339 67.765 67.765 67.765z" />
<glyph unicode="&#xe906;" glyph-name="Share" d="M896 149.222c0-70.63-57.308-127.887-128-127.887s-128 57.257-128 127.887c-0.215 3.553-0.215 7.112 0 10.66 0.742 8.207-3.22 16.133-10.24 20.465l-279.040 162.847c-7.020 4.5-16.020 4.5-23.040 0-20.92-14.981-45.945-23.163-71.68-23.45-70.692 0-128 57.262-128 127.892s57.308 127.89 128 127.89c25.643-0.034 50.66-7.919 71.68-22.594 7.020-4.5 16.020-4.5 23.040 0l279.465 162.847c6.574 4.29 10.322 11.783 9.815 19.61-0.215 3.55-0.215 7.109 0 10.658-0.338 60.041 41.175 112.231 99.789 125.463 58.619 13.232 118.554-16.059 144.082-70.413 25.533-54.354 9.779-119.134-37.862-155.727s-114.35-35.145-160.353 3.481l-291.842-170.521c-7.020-4.33-10.985-12.254-10.24-20.463 0.569-7.094 0.569-14.219 0-21.316-0.745-8.207 3.22-16.133 10.24-20.465l279.466-162.847c7.020-4.5 16.020-4.5 23.040 0 20.869 15.13 45.901 23.465 71.68 23.875 70.692 0 128-57.257 128-127.892z" />
<glyph unicode="&#xe907;" glyph-name="help" horiz-adv-x="1084" d="M542.118 854.588c-224.552 0-406.588-182.036-406.588-406.588 0-224.551 182.036-406.588 406.588-406.588s406.588 182.037 406.588 406.588c0 224.552-182.037 406.588-406.588 406.588zM45.176 448c0 274.453 222.488 496.941 496.941 496.941 274.45 0 496.941-222.488 496.941-496.941 0-274.45-222.491-496.941-496.941-496.941-274.453 0-496.941 222.491-496.941 496.941zM592.314 247.218c0-27.726-22.473-50.2-50.196-50.2s-50.196 22.474-50.196 50.2c0 27.72 22.473 50.194 50.196 50.194s50.196-22.474 50.196-50.194zM486.902 548.392c0 30.495 24.721 55.215 55.216 55.215s55.216-24.721 55.216-55.215v-6.090c0-16.259-6.459-31.852-17.956-43.35l-69.204-69.204c-17.642-17.643-17.642-46.247 0-63.889 17.642-17.645 46.247-17.645 63.889 0l69.203 69.204c28.443 28.441 44.424 67.016 44.424 107.239v6.090c0 80.395-65.175 145.568-145.571 145.568s-145.569-65.173-145.569-145.568v-25.098c0-24.95 20.226-45.176 45.176-45.176s45.176 20.226 45.176 45.176v25.098z" />
<glyph unicode="&#xe908;" glyph-name="Tag" horiz-adv-x="983" d="M123.478 435.163c1.782-12.669 7.934-26.116 23.705-45.834 16.151-20.193 39.824-43.93 73.823-77.93 40.314-40.313 55.82-55.296 74.177-64.451 5.55-2.769 11.288-5.145 17.17-7.111 19.454-6.509 41.014-6.877 98.026-6.877h204.022c58.798 0 99.803 0.066 130.74 4.223 30.056 4.043 45.974 11.432 57.307 22.77 11.338 11.334 18.727 27.251 22.77 57.307 4.157 30.937 4.223 71.942 4.223 130.74 0 58.794-0.066 99.799-4.223 130.738-4.043 30.056-11.432 45.971-22.77 57.308-11.334 11.336-27.251 18.727-57.307 22.768-30.937 4.16-71.942 4.225-130.74 4.225h-204.022c-57.012 0-78.572-0.369-98.026-6.877-5.882-1.968-11.619-4.344-17.17-7.112-18.358-9.154-33.864-24.138-74.177-64.452-33.998-33.998-57.672-57.733-73.823-77.93-15.771-19.718-21.923-33.165-23.705-45.834-1.197-8.516-1.197-17.154 0-25.67zM890.88 450.245v-4.493c0.004-56.017 0.004-101.167-4.772-136.679-4.956-36.868-15.561-67.912-40.215-92.566s-55.697-35.258-92.566-40.215c-35.512-4.776-80.663-4.776-136.679-4.772l-211.524-0.004c-49.931-0.008-82.16-0.016-112.265 10.056-8.597 2.875-16.982 6.349-25.094 10.392-28.409 14.168-51.193 36.962-86.492 72.278l-5.004 5.005c-32.405 32.403-58.533 58.532-77.069 81.707-19.161 23.958-32.621 47.616-36.564 75.653-1.996 14.193-1.996 28.59 0 42.783 3.943 28.037 17.403 51.696 36.564 75.653 18.536 23.177 44.665 49.306 77.070 81.711l5.003 5.004c35.299 35.315 58.083 58.11 86.492 72.276 8.113 4.045 16.497 7.518 25.094 10.394 30.105 10.071 62.334 10.064 112.265 10.052l211.524-0.001c56.017 0.001 101.167 0.002 136.679-4.773 36.868-4.957 67.912-15.561 92.566-40.216s35.258-55.697 40.215-92.566c4.776-35.511 4.776-80.663 4.772-136.68zM358.402 448c0 28.279 22.923 51.2 51.198 51.2 28.279 0 51.2-22.921 51.2-51.2 0-28.275-22.921-51.2-51.2-51.2-28.276 0-51.198 22.925-51.198 51.2zM409.6 560.641c-62.208 0-112.638-50.431-112.638-112.641s50.43-112.64 112.638-112.64c62.21 0 112.64 50.43 112.64 112.64s-50.43 112.641-112.64 112.641z" />
<glyph unicode="&#xe909;" glyph-name="tiktok" horiz-adv-x="904" d="M355.354 569.976c-147.795 7.131-250.526-45.563-308.196-158.080-86.505-168.774-15.011-444.941 273.581-444.941 288.589 0 296.938 278.865 296.938 308.079 0 19.48 0 128.379 0 326.701 61.729-39.098 113.772-62.632 156.13-70.603 42.357-7.974 69.289-11.507 80.788-10.601v162.53c-39.183 4.724-73.065 13.726-101.647 27.008-42.875 19.926-127.898 75.219-127.898 156.262 0.060-0.396 0.060 20.508 0 62.715h-178.65c-0.529-396.953-0.529-614.955 0-654.012 0.798-58.579-44.646-140.523-136.787-140.523-92.143 0-137.588 81.878-137.588 134.692 0 32.334 11.104 79.197 57.010 113.898 27.224 20.578 65.009 28.795 126.318 28.795 0 18.964 0 71.657 0 158.080z" />
<glyph unicode="&#xe90a;" glyph-name="Trash" d="M449.776 917.333h124.45c18.057 0.002 35.009 0.004 49.22-1.618 15.821-1.807 32.461-5.983 47.986-17.174s24.747-25.652 31.465-40.093c6.030-12.966 11.395-29.051 17.101-46.182l0.637-1.906 11.748-35.25h206.285c23.563 0 42.667-19.102 42.667-42.667s-19.103-42.667-42.667-42.667h-54.898l-25.987-389.774c-3.777-56.718-6.832-102.554-13.090-139.19-6.474-37.899-17.015-70.457-38.645-98.657-14.256-18.586-31.482-34.697-50.978-47.69-29.571-19.706-62.76-28.058-101.006-31.994-36.966-3.806-82.904-3.806-139.748-3.806h-4.631c-56.845 0-102.78 0-139.748 3.806-38.249 3.937-71.434 12.288-101.007 31.994-19.496 12.993-36.719 29.104-50.978 47.69-21.629 28.2-32.172 60.757-38.645 98.657-6.256 36.636-9.311 82.466-13.092 139.19l-25.985 389.774h-54.898c-23.564 0-42.667 19.103-42.667 42.667s19.103 42.667 42.667 42.667h206.285l12.385 37.155c5.708 17.13 11.068 33.216 17.1 46.182 6.717 14.441 15.941 28.902 31.468 40.093s32.162 15.368 47.986 17.174c14.208 1.622 31.163 1.62 49.22 1.618zM381.567 775.111h260.867l-2.759 8.265c-6.565 19.706-10.422 31.066-14.148 39.079-1.684 3.615-2.839 5.402-3.459 6.232-0.284 0.383-0.444 0.547-0.478 0.581l-0.057 0.047-0.063 0.037c-0.040 0.022-0.245 0.123-0.7 0.273-0.984 0.325-3.044 0.856-7.009 1.308-8.778 1.002-20.776 1.067-41.546 1.067h-120.433c-20.772 0-32.769-0.064-41.549-1.067-3.961-0.452-6.022-0.983-7.005-1.308-0.455-0.15-0.66-0.251-0.704-0.273l-0.061-0.037-0.054-0.047c-0.035-0.034-0.196-0.198-0.482-0.581-0.619-0.829-1.774-2.617-3.456-6.232-3.727-8.013-7.582-19.373-14.151-39.079l-2.755-8.265zM225.754 689.777l25.453-381.792c3.971-59.568 6.787-101.012 12.217-132.807 5.297-31.022 12.429-48.299 22.237-61.082 8.556-11.156 18.889-20.821 30.587-28.615 13.41-8.937 31.122-14.905 62.428-18.125 32.087-3.305 73.621-3.356 133.325-3.356 59.705 0 101.239 0.051 133.325 3.356 31.306 3.22 49.015 9.188 62.43 18.125 11.696 7.794 22.027 17.459 30.583 28.615 9.808 12.783 16.942 30.060 22.238 61.082 5.433 31.795 8.243 73.239 12.22 132.807l25.452 381.792h-572.494zM417.185 585.481c23.565 0 42.667-19.103 42.667-42.667v-331.853c0-23.563-19.102-42.667-42.667-42.667s-42.667 19.103-42.667 42.667v331.853c0 23.564 19.103 42.667 42.667 42.667zM649.483 542.814c0 23.564-19.103 42.667-42.667 42.667s-42.668-19.103-42.668-42.667v-189.631c0-23.563 19.105-42.667 42.668-42.667s42.667 19.103 42.667 42.667v189.631z" />
<glyph unicode="&#xe90b;" glyph-name="twitter" horiz-adv-x="1229" d="M1183.28 800.711c-42.762-18.551-87.982-30.814-134.26-36.409 48.817 29.166 85.408 75.049 102.967 129.138-45.875-27.31-96.099-46.552-148.48-56.889-35.007 37.969-81.633 63.243-132.56 71.859s-103.267 0.085-148.821-24.254c-45.554-24.339-81.741-63.109-102.887-110.231s-26.052-99.928-13.952-150.139c-92.761 4.692-183.498 28.845-266.316 70.892s-155.864 101.044-214.394 173.162c-20.529-35.85-31.317-76.448-31.289-117.76-0.072-38.365 9.342-76.153 27.407-109.999s44.218-62.7 76.131-83.993c-37.093 1.010-73.393 10.963-105.813 29.013v-2.844c0.278-53.754 19.115-105.762 53.323-147.227s81.689-69.842 134.41-80.329c-20.295-6.176-41.366-9.432-62.578-9.671-14.683 0.172-29.33 1.503-43.804 3.983 15.013-46.24 44.067-86.652 83.119-115.61 39.051-28.952 86.158-45.022 134.765-45.957-82.079-64.58-183.416-99.826-287.857-100.12-19.016-0.061-38.017 1.079-56.889 3.413 106.634-68.854 230.901-105.404 357.831-105.247 87.592-0.908 174.486 15.647 255.608 48.695 81.126 33.048 154.847 81.927 216.867 143.79s111.090 135.458 144.343 216.495c33.26 81.037 50.033 167.89 49.35 255.483 0 9.671 0 19.911 0 30.151 44.64 33.291 83.142 74.102 113.78 120.604z" />
<glyph unicode="&#xe90c;" glyph-name="menu" d="M128 682.667h768v-86h-768v86zM128 384.667v84h768v-84h-768zM128 170.667v86h768v-86h-768z" />
<glyph unicode="&#xe90d;" glyph-name="map-pin" d="M938.667 512c0 117.803-47.787 224.555-124.971 301.696s-183.893 124.971-301.696 124.971-224.555-47.787-301.696-124.971-124.971-183.893-124.971-301.696c0-24.277 2.261-48.128 6.4-71.509 11.691-66.048 38.357-128.171 71.765-184.32 116.565-195.883 324.821-334.336 324.821-334.336 14.123-9.259 32.64-9.771 47.317 0 0 0 208.299 138.453 324.821 334.336 33.408 56.149 60.075 118.272 71.765 184.32 4.181 23.381 6.443 47.232 6.443 71.509zM853.333 512c0-18.944-1.749-37.845-5.077-56.661-9.429-53.333-31.445-105.728-61.099-155.563-81.579-137.131-214.869-245.205-271.744-287.573-59.648 39.083-195.755 148.352-278.613 287.573-29.653 49.835-51.669 102.229-61.099 155.563-3.285 18.816-5.035 37.717-5.035 56.661 0 94.251 38.144 179.541 99.968 241.365s147.115 99.968 241.365 99.968 179.541-38.144 241.365-99.968 99.968-147.115 99.968-241.365zM682.667 512c0 47.104-19.157 89.856-50.005 120.661s-73.557 50.005-120.661 50.005-89.856-19.157-120.661-50.005-50.005-73.557-50.005-120.661 19.157-89.856 50.005-120.661 73.557-50.005 120.661-50.005 89.856 19.157 120.661 50.005 50.005 73.557 50.005 120.661zM597.333 512c0-23.595-9.515-44.843-25.003-60.331s-36.736-25.003-60.331-25.003-44.843 9.515-60.331 25.003-25.003 36.736-25.003 60.331 9.515 44.843 25.003 60.331 36.736 25.003 60.331 25.003 44.843-9.515 60.331-25.003 25.003-36.736 25.003-60.331z" />
<glyph unicode="&#xe90e;" glyph-name="mail" horiz-adv-x="1365" d="M568.978 954.308h-2.512c-82.943 0-148.668 0.001-201.441-4.782-54.007-4.895-99.452-15.121-140.226-38.662-49.295-28.46-90.229-69.395-118.69-118.69-23.541-40.774-33.767-86.219-38.662-140.227-4.783-52.771-4.782-118.497-4.782-201.44v-5.023c0-82.943-0.001-148.668 4.782-201.439 4.895-54.006 15.121-99.451 38.662-140.227 28.46-49.295 69.395-90.228 118.69-118.688 40.774-23.545 86.219-33.772 140.227-38.666 52.772-4.779 118.498-4.779 201.441-4.779h232.573c82.944 0 148.671 0 201.441 4.779 54.013 4.895 99.458 15.121 140.227 38.666 49.295 28.46 90.235 69.393 118.695 118.688 23.538 40.776 33.765 86.221 38.659 140.227 4.785 52.771 4.779 118.496 4.779 201.437v5.027c0 82.941 0.007 148.666-4.779 201.438-4.895 54.007-15.121 99.452-38.659 140.227-28.46 49.295-69.4 90.229-118.695 118.69-40.769 23.541-86.214 33.767-140.227 38.662-52.77 4.783-118.497 4.782-201.434 4.782h-230.070zM276 822.184c22.591 13.043 51.365 21.109 98.269 25.36 47.609 4.315 108.696 4.364 194.709 4.364h227.557c86.009 0 147.094-0.049 194.703-4.364 46.906-4.251 75.68-12.317 98.27-25.36 33.731-19.473 61.74-47.481 81.21-81.209 13.046-22.591 21.108-51.365 25.361-98.27 4.314-47.608 4.362-108.695 4.362-194.708s-0.048-147.1-4.362-194.707c-4.253-46.906-12.315-75.68-25.361-98.27-19.47-33.731-47.479-61.734-81.21-81.21-22.589-13.039-51.364-21.108-98.27-25.361-47.602-4.314-108.694-4.362-194.703-4.362h-227.557c-86.013 0-147.1 0.048-194.709 4.362-46.905 4.253-75.678 12.322-98.269 25.361-33.728 19.476-61.736 47.479-81.209 81.21-13.043 22.589-21.109 51.364-25.361 98.27-4.314 47.608-4.364 108.694-4.364 194.707s0.049 147.1 4.364 194.708c4.252 46.905 12.318 75.678 25.361 98.27 19.472 33.728 47.481 61.736 81.209 81.209zM369.823 718.154c-23.528 15.685-55.316 9.327-71.002-14.2s-9.327-55.316 14.201-71.002l341.333-227.555c17.198-11.465 39.603-11.465 56.799 0l341.333 227.555c23.532 15.686 29.887 47.474 14.199 71.002-15.681 23.527-47.473 29.885-70.997 14.2l-312.934-208.622-312.932 208.622z" />
<glyph unicode="&#xe90f;" glyph-name="Tag-2" d="M364.942 65.77l-217.754 217.757c-80.872 81.656-126.486 191.778-127.040 306.702l-0.005 4.349v0.009c0 3.747 0 5.622 0.015 7.208 1.729 179.297 146.655 324.223 325.953 325.953 1.587 0.015 3.463 0.015 7.216 0.015l4.349-0.005c114.925-0.554 225.047-46.168 306.703-127.040l3.079-3.072 214.682-214.682c24.013-24.014 36.023-36.021 45.261-47.029 102.671-122.361 102.671-300.777 0-423.141-9.238-11.008-21.248-23.011-45.261-47.024-24.013-24.020-36.023-36.023-47.031-45.261-122.36-102.678-300.776-102.678-423.137 0-11.009 9.238-23.016 21.241-47.030 45.261zM408.020 417.935c67.326 0 121.905 54.578 121.905 121.904s-54.579 121.905-121.905 121.905c-67.327 0-121.905-54.578-121.905-121.905s54.578-121.904 121.905-121.904z" />
<glyph unicode="&#xe910;" glyph-name="minus" d="M768 469.334h-512c-47.104 0-85.333-38.229-85.333-85.333s38.229-85.333 85.333-85.333h512c47.104 0 85.333 38.229 85.333 85.333s-38.229 85.333-85.333 85.333z" />
<glyph unicode="&#xe911;" glyph-name="plus" d="M768 512h-170.667v170.667c0 47.104-38.229 85.333-85.333 85.333s-85.333-38.229-85.333-85.333l3.029-170.667h-173.696c-47.104 0-85.333-38.229-85.333-85.333s38.229-85.333 85.333-85.333l173.696 3.029-3.029-173.696c0-47.104 38.229-85.333 85.333-85.333s85.333 38.229 85.333 85.333v173.696l170.667-3.029c47.104 0 85.333 38.229 85.333 85.333s-38.229 85.333-85.333 85.333z" />
<glyph unicode="&#xe912;" glyph-name="arrow-down" d="M316 572.667l196-196 196 196 60-60-256-256-256 256z" />
<glyph unicode="&#xe913;" glyph-name="done" d="M384 246.667l452 454 60-60-512-512-238 238 58 60z" />
<glyph unicode="&#xe914;" glyph-name="phone" horiz-adv-x="1084" d="M224.734 854.542c32.572-1.143 60.712-23.113 69.721-54.436 0.311-1.083 0.66-2.449 1.892-7.379l17.753-71.009c7.566-30.263 12.508-50.196 15.038-66.049 2.402-15.051 2.027-23.17 0.607-29.516-1.038-4.635-2.511-9.162-4.401-13.519-2.588-5.965-7.065-12.749-17.868-23.501-11.378-11.325-27.108-24.527-51.041-44.536l-49.322-41.235c-33.232 80.326-55.474 170.716-65.528 270.637-0.004 0.101-0.007 0.19-0.010 0.265l-0.048 1.032c-0.916 17.22 6.403 36.827 21.118 53.049s33.52 25.41 50.748 26.17c1.065 0.047 1.561 0.060 1.882 0.066l1.843 0.008c5.082 0 6.491-0.007 7.617-0.046zM247.763 419.579c63.56-112.824 153.030-202.292 265.851-265.852l56.889 68.048c18.499 22.13 34.204 40.912 48.63 55.404 15.306 15.378 31.365 28.25 51.579 37.015 9.583 4.162 19.546 7.403 29.738 9.686 21.504 4.813 42.068 3.867 63.488 0.446 20.191-3.223 43.948-9.162 71.927-16.155l73.517-18.384c3.897-0.97 6.921-1.729 9.734-2.536 68.909-19.817 117.242-81.727 119.76-153.383 0.102-2.921 0.102-6.042 0.096-10.059v-0.729c0-2.391 0-4.138-0.157-7.71-2.006-45.369-24.907-85.721-55.73-113.682-29.684-26.931-70.102-45.435-113.562-44.604-0.392-0.030-0.717-0.048-0.94-0.054-0.307-0.006-0.711-0.006-1.090-0.006-0.386 0-0.747 0.006-0.946 0.006l-0.958 0.036-0.91 0.048-0.699 0.048-0.452 0.042-0.175 0.012-0.608 0.060c-133.301 13.005-253.47 46.327-358.27 98.985-155.757 78.264-275.922 198.427-354.184 354.184-52.657 104.8-85.979 224.967-98.984 358.269l-0.029 0.301-0.029 0.308-0.016 0.176-0.038 0.451-0.051 0.699-0.050 0.911-0.032 0.955c-0.007 0.398-0.011 1.417-0.001 2.040 0.008 0.223 0.026 0.546 0.055 0.941-0.829 43.457 17.674 83.873 44.606 113.559 27.96 30.821 68.313 53.724 113.681 55.727 3.571 0.158 5.315 0.161 7.711 0.161h0.728c4.016 0 7.135 0.001 10.057-0.102 71.66-2.515 133.566-50.849 153.385-119.759 0.808-2.811 1.564-5.837 2.538-9.733l18.378-73.512c6.997-27.983 12.936-51.737 16.158-71.929 3.418-21.425 4.366-41.986-0.446-63.488-2.282-10.197-5.524-20.155-9.683-29.741-8.768-20.214-21.64-36.276-37.017-51.582-14.491-14.425-33.277-30.129-55.407-48.629l-68.044-56.887zM597.398 113.074c80.327-33.232 170.716-55.471 270.635-65.524 0.102-0.006 0.193-0.012 0.265-0.012l1.036-0.048c17.221-0.916 36.828 6.403 53.049 21.118s25.407 33.521 26.166 50.748c0.048 1.066 0.060 1.56 0.066 1.879l0.006 1.843c0 5.084-0.006 6.493-0.042 7.62-1.144 32.569-23.112 60.711-54.435 69.716-1.084 0.313-2.452 0.663-7.379 1.897l-71.011 17.751c-30.262 7.566-50.194 12.505-66.048 15.035-15.053 2.403-23.173 2.030-29.515 0.608-4.638-1.036-9.162-2.512-13.523-4.403-5.963-2.584-12.746-7.066-23.498-17.866-11.324-11.378-24.528-27.106-44.538-51.043l-41.235-49.321zM877.947-41.201c0.337 0.090 0.687 0.193 1.054 0.301 0.91 0.271 2.024 0.632 3.283 1.114 1.241 0.476 2.825 1.144 4.608 2.066 0.717 0.379 2.211 1.229 2.988 1.699 0.861 0.542 2.638 1.765 3.554 2.44 1.012 0.789 3.078 2.566 4.132 3.548 1.144 1.15 3.421 3.717 4.542 5.138 1.187 1.638 3.421 5.228 4.451 7.18 1.012 2.181 2.723 6.813 3.403 9.264 0.56 2.578 1.217 7.825 1.319 10.475-0.054 2.614-0.596 7.68-1.066 10.126-1.397 6.319-3.921 11.318-6.277 14.932-0.687 1.018-1.934 2.693-2.855 3.873 9.583-32.166-12.475-65.47-23.136-72.156zM893.073 38.641c-3.542 2.277-7.060 4.204-9.638 5.469 0.054-0.024 0.108-0.042 0.169-0.066 0.59-0.253 1.283-0.554 2.060-0.928 0.765-0.367 1.693-0.843 2.729-1.428 1.024-0.578 2.301-1.361 3.723-2.355 0.301-0.217 0.62-0.446 0.958-0.693zM52.835 783.912c6.686 10.659 39.982 32.719 72.146 23.141-1.181 0.925-2.858 2.17-3.874 2.858-3.614 2.358-8.621 4.88-14.941 6.275-2.444 0.469-7.515 1.007-10.126 1.060-2.651-0.101-7.899-0.766-10.477-1.325-2.447-0.68-7.079-2.391-9.256-3.403-1.955-1.032-5.542-3.269-7.176-4.452-1.42-1.122-3.983-3.403-5.133-4.547-0.985-1.049-2.756-3.118-3.547-4.129-0.677-0.915-1.894-2.693-2.439-3.552-0.468-0.775-1.315-2.27-1.695-2.989-0.921-1.778-1.59-3.361-2.066-4.602-0.483-1.26-0.846-2.376-1.116-3.283-0.109-0.367-0.209-0.718-0.299-1.051zM132.668 799.043c0.251-0.337 0.482-0.658 0.696-0.961 1-1.42 1.778-2.699 2.358-3.723 0.588-1.036 1.061-1.965 1.429-2.732 0.371-0.773 0.678-1.47 0.926-2.059 0.025-0.058 0.048-0.115 0.072-0.172-1.27 2.58-3.196 6.102-5.48 9.647z" />
<glyph unicode="&#xe986;" glyph-name="search" d="M992.262 88.604l-242.552 206.294c-25.074 22.566-51.89 32.926-73.552 31.926 57.256 67.068 91.842 154.078 91.842 249.176 0 212.078-171.922 384-384 384-212.076 0-384-171.922-384-384s171.922-384 384-384c95.098 0 182.108 34.586 249.176 91.844-1-21.662 9.36-48.478 31.926-73.552l206.294-242.552c35.322-39.246 93.022-42.554 128.22-7.356s31.892 92.898-7.354 128.22zM384 320c-141.384 0-256 114.616-256 256s114.616 256 256 256 256-114.616 256-256-114.614-256-256-256z" />
</font>
</defs>
</svg>
